HIERARCHY
ROOT hip
{
  OFFSET 0 0 0
  CHANNELS 6 Xposition Yposition Zposition Zrotation Yrotation Xrotation
  JOINT abdomen
  {
    OFFSET 0 20.6881 -0.73152
    CHANNELS 3 Zrotation Xrotation Yrotation
    JOINT chest
    {
      OFFSET 0 11.7043 -0.48768
      CHANNELS 3 Zrotation Xrotation Yrotation
      JOINT neck
      {
        OFFSET 0 22.1894 -2.19456
        CHANNELS 3 Zrotation Xrotation Yrotation
        JOINT head
        {
          OFFSET -0.24384 7.07133 1.2192
          CHANNELS 3 Zrotation Xrotation Yrotation
          JOINT leftEye
          {
            OFFSET 4.14528 8.04674 8.04672
            CHANNELS 3 Zrotation Xrotation Yrotation
            End Site
            {
              OFFSET 1 0 0
            }
          }
          JOINT rightEye
          {
            OFFSET -3.6576 8.04674 8.04672
            CHANNELS 3 Zrotation Xrotation Yrotation
            End Site
            {
              OFFSET 1 0 0
            }
          }
        }
      }
      JOINT rCollar
      {
        OFFSET -2.68224 19.2634 -4.8768
        CHANNELS 3 Zrotation Xrotation Yrotation
        JOINT rShldr
        {
          OFFSET -8.77824 -1.95073 1.46304
          CHANNELS 3 Zrotation Xrotation Yrotation
          JOINT rForeArm
          {
            OFFSET -28.1742 -1.7115 0.48768
            CHANNELS 3 Zrotation Xrotation Yrotation
            JOINT rHand
            {
              OFFSET -22.5879 0.773209 7.07136
              CHANNELS 3 Zrotation Xrotation Yrotation
              JOINT rThumb1
              {
                OFFSET -1.2192 -0.487915 3.41376
                CHANNELS 3 Zrotation Xrotation Yrotation
                JOINT rThumb2
                {
                  OFFSET -3.37035 -0.52449 3.41376
                  CHANNELS 3 Zrotation Xrotation Yrotation
                  End Site
                  {
                    OFFSET -1.78271 -1.18214 1.43049
                  }
                }
              }
              JOINT rIndex1
              {
                OFFSET -7.75947 0.938293 5.60832
                CHANNELS 3 Zrotation Xrotation Yrotation
                JOINT rIndex2
                {
                  OFFSET -2.54057 -0.884171 1.56538
                  CHANNELS 3 Zrotation Xrotation Yrotation
                  End Site
                  {
                    OFFSET -1.62519 -0.234802 1.16502
                  }
                }
              }
              JOINT rMid1
              {
                OFFSET -8.24714 1.18213 3.41376
                CHANNELS 3 Zrotation Xrotation Yrotation
                JOINT rMid2
                {
                  OFFSET -3.10165 -0.590103 1.0647
                  CHANNELS 3 Zrotation Xrotation Yrotation
                  End Site
                  {
                    OFFSET -2.48547 -0.328903 0.83742
                  }
                }
              }
              JOINT rRing1
              {
                OFFSET -8.82822 0.546677 1.51678
                CHANNELS 3 Zrotation Xrotation Yrotation
                JOINT rRing2
                {
                  OFFSET -2.60934 -0.819778 -0.0198488
                  CHANNELS 3 Zrotation Xrotation Yrotation
                  End Site
                  {
                    OFFSET -2.33842 -0.294052 0.168128
                  }
                }
              }
              JOINT rPinky1
              {
                OFFSET -8.27202 -0.0477905 -0.4584
                CHANNELS 3 Zrotation Xrotation Yrotation
                JOINT rPinky2
                {
                  OFFSET -1.82734 -0.647385 -0.700984
                  CHANNELS 3 Zrotation Xrotation Yrotation
                  End Site
                  {
                    OFFSET -1.69225 -0.51767 -0.607171
                  }
                }
              }
            }
          }
        }
      }
      JOINT lCollar
      {
        OFFSET 2.68224 19.2634 -4.8768
        CHANNELS 3 Zrotation Xrotation Yrotation
        JOINT lShldr
        {
          OFFSET 8.77824 -1.95073 1.46304
          CHANNELS 3 Zrotation Xrotation Yrotation
          JOINT lForeArm
          {
            OFFSET 28.1742 -1.7115 0.48768
            CHANNELS 3 Zrotation Xrotation Yrotation
            JOINT lHand
            {
              OFFSET 22.5879 0.773209 7.07136
              CHANNELS 3 Zrotation Xrotation Yrotation
              JOINT lThumb1
              {
                OFFSET 1.2192 -0.487915 3.41376
                CHANNELS 3 Zrotation Xrotation Yrotation
                JOINT lThumb2
                {
                  OFFSET 3.37035 -0.52449 3.41376
                  CHANNELS 3 Zrotation Xrotation Yrotation
                  End Site
                  {
                    OFFSET 1.78271 -1.18214 1.43049
                  }
                }
              }
              JOINT lIndex1
              {
                OFFSET 7.75947 0.938293 5.60832
                CHANNELS 3 Zrotation Xrotation Yrotation
                JOINT lIndex2
                {
                  OFFSET 2.54057 -0.884171 1.56538
                  CHANNELS 3 Zrotation Xrotation Yrotation
                  End Site
                  {
                    OFFSET 1.62519 -0.234802 1.16502
                  }
                }
              }
              JOINT lMid1
              {
                OFFSET 8.24714 1.18213 3.41376
                CHANNELS 3 Zrotation Xrotation Yrotation
                JOINT lMid2
                {
                  OFFSET 3.10165 -0.590103 1.0647
                  CHANNELS 3 Zrotation Xrotation Yrotation
                  End Site
                  {
                    OFFSET 2.48547 -0.328903 0.83742
                  }
                }
              }
              JOINT lRing1
              {
                OFFSET 8.82822 0.546677 1.51678
                CHANNELS 3 Zrotation Xrotation Yrotation
                JOINT lRing2
                {
                  OFFSET 2.60934 -0.819778 -0.0198488
                  CHANNELS 3 Zrotation Xrotation Yrotation
                  End Site
                  {
                    OFFSET 2.33842 -0.294052 0.168128
                  }
                }
              }
              JOINT lPinky1
              {
                OFFSET 8.27202 -0.0477905 -0.4584
                CHANNELS 3 Zrotation Xrotation Yrotation
                JOINT lPinky2
                {
                  OFFSET 1.82734 -0.647385 -0.700984
                  CHANNELS 3 Zrotation Xrotation Yrotation
                  End Site
                  {
                    OFFSET 1.69225 -0.51767 -0.607171
                  }
                }
              }
            }
          }
        }
      }
    }
  }
  JOINT rButtock
  {
    OFFSET -8.77824 4.35084 1.2192
    CHANNELS 3 Zrotation Xrotation Yrotation
    JOINT rThigh
    {
      OFFSET 0 -1.70687 -2.19456
      CHANNELS 3 Zrotation Xrotation Yrotation
      JOINT rShin
      {
        OFFSET 0 -36.8199 0.73152
        CHANNELS 3 Zrotation Xrotation Yrotation
        JOINT rFoot
        {
          OFFSET 0.73152 -45.1104 -5.12064
          CHANNELS 3 Zrotation Xrotation Yrotation
          End Site
          {
            OFFSET -1.1221 -3.69964 12.103
          }
        }
      }
    }
  }
  JOINT lButtock
  {
    OFFSET 8.77824 4.35084 1.2192
    CHANNELS 3 Zrotation Xrotation Yrotation
    JOINT lThigh
    {
      OFFSET 0 -1.70687 -2.19456
      CHANNELS 3 Zrotation Xrotation Yrotation
      JOINT lShin
      {
        OFFSET 0 -36.8199 0.73152
        CHANNELS 3 Zrotation Xrotation Yrotation
        JOINT lFoot
        {
          OFFSET -0.73152 -45.1104 -5.12064
          CHANNELS 3 Zrotation Xrotation Yrotation
          End Site
          {
            OFFSET 1.1221 -3.69964 12.103
          }
        }
      }
    }
  }
}
MOTION
Frames:	8
Frame Time:	0.00833333
0.319457 82.23 46.9271 540.746 -78.0402 -534.311 27.9763 7.09256 -10.7383 10.2633 -0.0218285 -3.5694 -8.64606 24.2765 -22.6731 35.4985 -12.8899 -45.6364 -0.0 0.0 0.0 -0.0 0.0 0.0 -1.54895e-13 3.85969e-13 -1.3582e-13 48.2904 -17.9462 -4.40078 -9.00653 -3.55975 15.9515 -1.02587 27.4851 4.1929 9.51801e-10 -4.71876e-10 1.55103e-09 1.67794e-09 -8.07595e-10 2.65784e-09 9.5181e-10 -4.71875e-10 1.55103e-09 7.73091 5.47488 0.417314 9.51806e-10 -4.71881e-10 1.55104e-09 2.90554 0.965183 0.102902 9.51808e-10 -4.71878e-10 1.55103e-09 10.2786 0.731801 0.0259123 9.51799e-10 -4.71877e-10 1.55104e-09 2.22167 -0.733487 -0.20892 -1.54971e-13 3.85936e-13 -1.35978e-13 -86.6296 8.54385 10.4464 15.589 -8.31143 -28.8087 2.0273 36.9367 -6.06526 1.75089e-09 -2.93182e-09 5.95968e-10 3.03539e-09 -5.07398e-09 9.72127e-10 1.75088e-09 -2.93182e-09 5.95981e-10 -7.73091 5.47488 -0.417314 1.75089e-09 -2.93187e-09 5.95975e-10 -2.90554 0.965183 -0.102902 1.75088e-09 -2.93187e-09 5.9597e-10 -10.2786 0.731801 -0.0259123 1.75089e-09 -2.93183e-09 5.95963e-10 -2.22167 -0.733487 0.20892 -2.03217e-16 0.0 -3.88251e-19 -6.32167 -15.7796 9.57697 -0.315695 38.9955 0.686887 0.746554 -2.84153 7.08039 2.03217e-16 0.0 3.88251e-19 5.84593 -34.8236 5.55432 0.217691 33.9237 -0.516353 1.10182 -6.19661 5.63297
-0.583384 82.093 46.9213 541.2 -78.0853 -534.955 27.5777 7.02563 -10.7738 10.2365 0.0318716 -3.58431 -8.72149 24.2295 -22.6107 35.498 -12.68 -45.6246 -0.0 0.0 0.0 -0.0 0.0 0.0 -1.24624e-13 1.25744e-13 -1.75925e-14 48.6621 -18.0133 -4.15357 -9.00543 -3.5589 15.9494 -1.02567 27.4822 4.19241 7.06967e-11 -9.55238e-10 1.04273e-09 1.48166e-10 -1.65381e-09 1.80042e-09 7.0705e-11 -9.55238e-10 1.04272e-09 7.73091 5.47488 0.417314 7.06998e-11 -9.55243e-10 1.04273e-09 2.90554 0.965183 0.102902 7.07034e-11 -9.5524e-10 1.04273e-09 10.2786 0.731801 0.0259123 7.06946e-11 -9.5524e-10 1.04274e-09 2.22167 -0.733487 -0.20892 -1.2466e-13 1.25719e-13 -1.77633e-14 -86.1005 8.76704 10.0593 15.8237 -8.5249 -29.3007 1.98044 36.5813 -5.98699 3.97024e-10 -1.07334e-09 1.54302e-09 7.28524e-10 -1.89188e-09 2.649e-09 3.97019e-10 -1.07333e-09 1.54304e-09 -7.73091 5.47488 -0.417314 3.97025e-10 -1.07337e-09 1.54303e-09 -2.90554 0.965183 -0.102902 3.97015e-10 -1.07337e-09 1.54303e-09 -10.2786 0.731801 -0.0259123 3.97027e-10 -1.07334e-09 1.54302e-09 -2.22167 -0.733487 0.20892 -2.03217e-16 0.0 -3.88251e-19 -6.31302 -15.7275 9.54769 -0.334318 39.9505 0.712653 0.660175 -1.93314 7.2509 2.03217e-16 0.0 3.88251e-19 5.7401 -34.7401 5.22335 0.216045 33.8035 -0.505293 1.06972 -6.2712 5.48576
-1.48619 81.949 46.9144 541.633 -78.1401 -535.589 27.1636 6.96295 -10.8128 10.2123 0.0857116 -3.59936 -8.79983 24.1788 -22.5444 35.497 -12.4582 -45.6096 -0.0 0.0 0.0 -0.0 0.0 0.0 -9.0078e-14 -1.36918e-13 1.01927e-13 49.0735 -18.048 -3.8851 -9.00904 -3.56069 15.956 -1.02314 27.4515 4.18691 -7.81558e-10 -1.36661e-09 4.71525e-10 -1.33347e-09 -2.37496e-09 8.33518e-10 -7.8155e-10 -1.36661e-09 4.71521e-10 7.73091 5.47488 0.417314 -7.81557e-10 -1.36661e-09 4.71531e-10 2.90554 0.965183 0.102902 -7.81551e-10 -1.36661e-09 4.71524e-10 10.2786 0.731801 0.0259123 -7.8156e-10 -1.36661e-09 4.71531e-10 2.22167 -0.733487 -0.20892 -9.00765e-14 -1.36932e-13 1.01742e-13 -85.5458 8.98444 9.63974 16.0616 -8.74471 -29.803 1.93414 36.2234 -5.90893 -9.24103e-10 7.52118e-10 2.44198e-09 -1.52274e-09 1.23084e-09 4.24167e-09 -9.24108e-10 7.52122e-10 2.44199e-09 -7.73091 5.47488 -0.417314 -9.24103e-10 7.52107e-10 2.44199e-09 -2.90554 0.965183 -0.102902 -9.24113e-10 7.52105e-10 2.44198e-09 -10.2786 0.731801 -0.0259123 -9.241e-10 7.52112e-10 2.44198e-09 -2.22167 -0.733487 0.20892 -2.03217e-16 0.0 -3.88251e-19 -6.30015 -15.7216 9.51045 -0.354901 40.9679 0.741893 0.558117 -0.968202 7.38876 2.03217e-16 0.0 3.88251e-19 5.62587 -34.6327 4.91362 0.215645 33.7672 -0.496577 1.0358 -6.35384 5.32217
-2.38837 81.7994 46.9066 542.041 -78.2044 -536.208 26.734 6.90464 -10.8535 10.1899 0.138965 -3.6139 -8.88106 24.124 -22.4742 35.4964 -12.225 -45.5903 -0.0 0.0 0.0 -0.0 0.0 0.0 -5.40843e-14 -3.05333e-13 1.7503e-13 49.5258 -18.0282 -3.59499 -9.02004 -3.56677 15.9762 -1.01648 27.3714 4.17255 -1.24495e-09 -1.52302e-09 2.22244e-10 -2.13809e-09 -2.65059e-09 4.1341e-10 -1.24494e-09 -1.52302e-09 2.22241e-10 7.73091 5.47488 0.417314 -1.24495e-09 -1.52302e-09 2.22251e-10 2.90554 0.965183 0.102902 -1.24494e-09 -1.52302e-09 2.22244e-10 10.2786 0.731801 0.0259123 -1.24495e-09 -1.52302e-09 2.22251e-10 2.22167 -0.733487 -0.20892 -5.40582e-14 -3.05333e-13 1.74831e-13 -84.9755 9.19378 9.18348 16.2987 -8.96772 -30.3058 1.89011 35.8766 -5.83403 -1.71213e-09 1.9092e-09 2.51236e-09 -2.87886e-09 3.2244e-09 4.3876e-09 -1.71213e-09 1.90921e-09 2.51237e-09 -7.73091 5.47488 -0.417314 -1.71213e-09 1.9092e-09 2.51237e-09 -2.90554 0.965183 -0.102902 -1.71214e-09 1.9092e-09 2.51236e-09 -10.2786 0.731801 -0.0259123 -1.71212e-09 1.9092e-09 2.51236e-09 -2.22167 -0.733487 0.20892 -2.03217e-16 0.0 -3.88251e-19 -6.28573 -15.7631 9.45942 -0.377253 42.0359 0.774236 0.443264 0.0320735 7.48107 2.03217e-16 0.0 3.88251e-19 5.50311 -34.4997 4.62863 0.216388 33.8007 -0.490252 1.0016 -6.45267 5.14593
-3.28939 81.6455 46.8989 542.419 -78.2777 -536.806 26.2878 6.85069 -10.8965 10.1699 0.192157 -3.6281 -8.96533 24.0655 -22.3999 35.4964 -11.9799 -45.5673 -0.0 0.0 0.0 -0.0 0.0 0.0 -1.00321e-14 -3.64953e-13 1.93804e-13 50.0191 -17.9606 -3.28355 -9.03793 -3.57682 16.0093 -1.00589 27.2419 4.14944 -1.18871e-09 -1.35421e-09 6.00241e-10 -2.0341e-09 -2.35805e-09 1.06407e-09 -1.1887e-09 -1.35422e-09 6.00238e-10 7.73091 5.47488 0.417314 -1.18871e-09 -1.35422e-09 6.00247e-10 2.90554 0.965183 0.102902 -1.1887e-09 -1.35422e-09 6.00243e-10 10.2786 0.731801 0.0259123 -1.18871e-09 -1.35421e-09 6.0025e-10 2.22167 -0.733487 -0.20892 -9.99624e-15 -3.64934e-13 1.93588e-13 -84.3848 9.39318 8.69038 16.5357 -9.19489 -30.8112 1.84781 35.5384 -5.76156 -1.81477e-09 2.20367e-09 1.0429e-09 -3.09776e-09 3.77402e-09 1.85399e-09 -1.81477e-09 2.20367e-09 1.04291e-09 -7.73091 5.47488 -0.417314 -1.81477e-09 2.20367e-09 1.04291e-09 -2.90554 0.965183 -0.102902 -1.81478e-09 2.20367e-09 1.0429e-09 -10.2786 0.731801 -0.0259123 -1.81477e-09 2.20367e-09 1.04289e-09 -2.22167 -0.733487 0.20892 -2.03217e-16 0.0 -3.88251e-19 -6.26954 -15.8523 9.3953 -0.401927 43.1627 0.810544 0.316219 1.08098 7.5262 2.03217e-16 0.0 3.88251e-19 5.37199 -34.3418 4.37123 0.218424 33.9128 -0.486513 0.96601 -6.56719 4.95243
-4.189 81.4892 46.889 542.766 -78.3595 -537.382 25.8256 6.80106 -10.9423 10.1523 0.245435 -3.64221 -9.05256 24.0032 -22.3216 35.4964 -11.7226 -45.5413 -0.0 0.0 0.0 -0.0 0.0 0.0 4.11318e-14 -3.63598e-13 1.8209e-13 50.5514 -17.8525 -2.95124 -9.06165 -3.59021 16.0533 -0.992254 27.0725 4.11935 -8.16426e-10 -9.64934e-10 1.3327e-09 -1.37818e-09 -1.68064e-09 2.31916e-09 -8.16422e-10 -9.64942e-10 1.3327e-09 7.73091 5.47488 0.417314 -8.16427e-10 -9.64935e-10 1.3327e-09 2.90554 0.965183 0.102902 -8.16423e-10 -9.64942e-10 1.3327e-09 10.2786 0.731801 0.0259123 -8.1643e-10 -9.64931e-10 1.33271e-09 2.22167 -0.733487 -0.20892 4.11675e-14 -3.63555e-13 1.81854e-13 -83.7704 9.58401 8.16229 16.7739 -9.42688 -31.3231 1.80656 35.2034 -5.69038 -1.50517e-09 1.98264e-09 -1.38244e-09 -2.63327e-09 3.46007e-09 -2.34265e-09 -1.50517e-09 1.98265e-09 -1.38243e-09 -7.73091 5.47488 -0.417314 -1.50517e-09 1.98265e-09 -1.38243e-09 -2.90554 0.965183 -0.102902 -1.50518e-09 1.98265e-09 -1.38243e-09 -10.2786 0.731801 -0.0259123 -1.50517e-09 1.98264e-09 -1.38244e-09 -2.22167 -0.733487 0.20892 -2.03217e-16 0.0 -3.88251e-19 -6.25078 -15.9886 9.3204 -0.429602 44.3508 0.851364 0.179075 2.18398 7.53119 2.03217e-16 0.0 3.88251e-19 5.23284 -34.1598 4.13911 0.221716 34.1069 -0.48526 0.928347 -6.69394 4.74153
-5.08633 81.3315 46.8759 543.082 -78.4492 -537.932 25.3491 6.75578 -10.9893 10.136 0.297508 -3.65564 -9.1423 23.9362 -22.2395 35.4961 -11.4548 -45.5108 -0.0 0.0 0.0 -0.0 0.0 0.0 8.52429e-14 -2.98134e-13 1.39811e-13 51.1205 -17.6829 -2.59821 -9.09312 -3.60809 16.1116 -0.974896 26.8561 4.08099 -2.69642e-10 -4.34689e-10 1.93718e-09 -4.23954e-10 -7.56857e-10 3.34949e-09 -2.6964e-10 -4.347e-10 1.93718e-09 7.73091 5.47488 0.417314 -2.69644e-10 -4.34689e-10 1.93719e-09 2.90554 0.965183 0.102902 -2.69641e-10 -4.347e-10 1.93719e-09 10.2786 0.731801 0.0259123 -2.69648e-10 -4.34685e-10 1.9372e-09 2.22167 -0.733487 -0.20892 8.52699e-14 -2.9807e-13 1.39561e-13 -83.1451 9.76881 7.59782 17.0097 -9.66041 -31.8342 1.76764 34.8818 -5.6226 -9.21113e-10 1.42283e-09 -3.60128e-09 -1.68966e-09 2.55557e-09 -6.19092e-09 -9.21112e-10 1.42283e-09 -3.60127e-09 -7.73091 5.47488 -0.417314 -9.2111e-10 1.42283e-09 -3.60128e-09 -2.90554 0.965183 -0.102902 -9.21122e-10 1.42283e-09 -3.60128e-09 -10.2786 0.731801 -0.0259123 -9.21105e-10 1.42283e-09 -3.60128e-09 -2.22167 -0.733487 0.20892 -2.03217e-16 0.0 -3.88251e-19 -6.23135 -16.1717 9.23132 -0.460141 45.5801 0.89576 0.0380983 3.30826 7.49566 2.03217e-16 0.0 3.88251e-19 5.08574 -33.9521 3.92812 0.225925 34.3606 -0.486124 0.890723 -6.83663 4.52358
-5.98137 81.1746 46.8629 543.367 -78.5463 -538.457 24.8604 6.71489 -11.0355 10.1196 0.347085 -3.66781 -9.23413 23.8634 -22.1536 35.495 -11.1777 -45.4747 -0.0 0.0 0.0 -0.0 0.0 0.0 1.08137e-13 -1.65425e-13 6.6891e-14 51.7233 -17.4305 -2.22476 -9.13422 -3.63156 16.1876 -0.953227 26.5856 4.03313 3.1011e-10 1.57008e-10 1.93125e-09 5.74988e-10 2.74819e-10 3.3259e-09 3.10112e-10 1.56996e-10 1.93125e-09 7.73091 5.47488 0.417314 3.10109e-10 1.57008e-10 1.93126e-09 2.90554 0.965183 0.102902 3.10111e-10 1.56995e-10 1.93126e-09 10.2786 0.731801 0.0259123 3.10103e-10 1.57013e-10 1.93127e-09 2.22167 -0.733487 -0.20892 1.08148e-13 -1.65352e-13 6.66426e-14 -82.5212 9.95013 6.99559 17.2401 -9.89238 -32.337 1.73217 34.5834 -5.56025 -2.00359e-10 7.00931e-10 -4.45127e-09 -4.7122e-10 1.33354e-09 -7.67946e-09 -2.00357e-10 7.00935e-10 -4.45126e-09 -7.73091 5.47488 -0.417314 -2.00356e-10 7.00934e-10 -4.45127e-09 -2.90554 0.965183 -0.102902 -2.00368e-10 7.00933e-10 -4.45127e-09 -10.2786 0.731801 -0.0259123 -2.0035e-10 7.00932e-10 -4.45127e-09 -2.22167 -0.733487 0.20892 -2.03217e-16 0.0 -3.88251e-19 -6.21327 -16.4013 9.12467 -0.493222 46.8304 0.94266 -0.100341 4.42103 7.41881 2.03217e-16 0.0 3.88251e-19 4.93084 -33.7173 3.73411 0.230719 34.6518 -0.48874 0.855287 -6.99899 4.30895
